{
  "accessors": [
    {
      "bufferView": 2,
      "componentType": 5126,
      "count": 65532,
      "max": [
        0.03320622444152832,
        0.033957675099372864,
        0.10199926793575287
      ],
      "min": [
        -0.02430552989244461,
        -0.03266274183988571,
        0.016414403915405273
      ],
      "type": "VEC3"
    },
    {
      "bufferView": 2,
      "byteOffset": 786384,
      "componentType": 5126,
      "count": 65532,
      "max": [
        0.9999949336051941,
        0.9999852776527405,
        0.9999926686286926
      ],
      "min": [
        -0.999973714351654,
        -0.9999650716781616,
        -0.8223080635070801
      ],
      "type": "VEC3"
    },
    {
      "bufferView": 1,
      "componentType": 5126,
      "count": 65532,
      "max": [
        0.9994311928749084,
        0.9995115995407104
      ],
      "min": [
        0.00048828125,
        0.0005079699913039804
      ],
      "type": "VEC2"
    },
    {
      "bufferView": 1,
      "byteOffset": 524256,
      "componentType": 5126,
      "count": 65532,
      "max": [
        0.9994311928749084,
        0.9995115995407104
      ],
      "min": [
        0.00048828125,
        0.0005079699913039804
      ],
      "type": "VEC2"
    },
    {
      "bufferView": 0,
      "componentType": 5125,
      "count": 293508,
      "type": "SCALAR"
    },
    {
      "bufferView": 2,
      "byteOffset": 1572768,
      "componentType": 5126,
      "count": 65532,
      "max": [
        0.032494544982910156,
        0.032962873578071594,
        0.10041157901287079
      ],
      "min": [
        -0.032711438834667206,
        -0.03282228112220764,
        7.62939453125e-05
      ],
      "type": "VEC3"
    },
    {
      "bufferView": 2,
      "byteOffset": 2359152,
      "componentType": 5126,
      "count": 65532,
      "max": [
        0.9999876618385315,
        0.9999744296073914,
        0.999998152256012
      ],
      "min": [
        -0.9999933242797852,
        -0.9999832510948181,
        -0.9999616146087646
      ],
      "type": "VEC3"
    },
    {
      "bufferView": 1,
      "byteOffset": 1048512,
      "componentType": 5126,
      "count": 65532,
      "max": [
        0.9993521571159363,
        0.9924360513687134
      ],
      "min": [
        0.00048828125,
        0.0004884792724624276
      ],
      "type": "VEC2"
    },
    {
      "bufferView": 1,
      "byteOffset": 1572768,
      "componentType": 5126,
      "count": 65532,
      "max": [
        0.9993521571159363,
        0.9924360513687134
      ],
      "min": [
        0.00048828125,
        0.0004884792724624276
      ],
      "type": "VEC2"
    },
    {
      "bufferView": 0,
      "byteOffset": 1174032,
      "componentType": 5125,
      "count": 295998,
      "type": "SCALAR"
    },
    {
      "bufferView": 2,
      "byteOffset": 3145536,
      "componentType": 5126,
      "count": 23435,
      "max": [
        0.03234194219112396,
        0.033957675099372864,
        0.09433245658874512
      ],
      "min": [
        -0.028246767818927765,
        -0.031457990407943726,
        0.00013053417205810547
      ],
      "type": "VEC3"
    },
    {
      "bufferView": 2,
      "byteOffset": 3426756,
      "componentType": 5126,
      "count": 23435,
      "max": [
        0.999726414680481,
        0.9999722242355347,
        0.9999979138374329
      ],
      "min": [
        -0.9993156790733337,
        -0.9999650716781616,
        -0.9999616146087646
      ],
      "type": "VEC3"
    },
    {
      "bufferView": 1,
      "byteOffset": 2097024,
      "componentType": 5126,
      "count": 23435,
      "max": [
        0.9994564056396484,
        0.9953191876411438
      ],
      "min": [
        0.00048828125,
        0.0005051089683547616
      ],
      "type": "VEC2"
    },
    {
      "bufferView": 1,
      "byteOffset": 2284504,
      "componentType": 5126,
      "count": 23435,
      "max": [
        0.9994564056396484,
        0.9953191876411438
      ],
      "min": [
        0.00048828125,
        0.0005051089683547616
      ],
      "type": "VEC2"
    },
    {
      "bufferView": 0,
      "byteOffset": 2358024,
      "componentType": 5125,
      "count": 84696,
      "type": "SCALAR"
    }
  ],
  "asset": {
    "extras": {
      "author": "skvyrla (https://sketchfab.com/skvyrla)",
      "license": "CC-BY-4.0 (http://creativecommons.org/licenses/by/4.0/)",
      "source": "https://sketchfab.com/3d-models/succulent-haworthiopsis-limifolia-42951ee6b4134c49959469469b03e7fe",
      "title": "Succulent haworthiopsis limifolia"
    },
    "generator": "Sketchfab-15.44.0",
    "version": "2.0"
  },
  "bufferViews": [
    {
      "buffer": 0,
      "byteLength": 2696808,
      "name": "floatBufferViews",
      "target": 34963
    },
    {
      "buffer": 0,
      "byteLength": 2471984,
      "byteOffset": 2696808,
      "byteStride": 8,
      "name": "floatBufferViews",
      "target": 34962
    },
    {
      "buffer": 0,
      "byteLength": 3707976,
      "byteOffset": 5168792,
      "byteStride": 12,
      "name": "floatBufferViews",
      "target": 34962
    }
  ],
  "buffers": [
    {
      "byteLength": 8876768,
      "uri": "scene.bin"
    }
  ],
  "extensionsUsed": [
    "KHR_materials_unlit"
  ],
  "images": [
    {
      "uri": "textures/tex_u1_v1_baseColor.jpeg"
    }
  ],
  "materials": [
    {
      "doubleSided": true,
      "extensions": {
        "KHR_materials_unlit": {}
      },
      "name": "tex_u1_v1",
      "pbrMetallicRoughness": {
        "baseColorTexture": {
          "index": 0
        },
        "metallicFactor": 0.0
      }
    }
  ],
  "meshes": [
    {
      "name": "model_tex_u1_v1_0",
      "primitives": [
        {
          "attributes": {
            "NORMAL": 1,
            "POSITION": 0,
            "TEXCOORD_0": 2,
            "TEXCOORD_1": 3
          },
          "indices": 4,
          "material": 0,
          "mode": 4
        }
      ]
    },
    {
      "name": "model_tex_u1_v1_0",
      "primitives": [
        {
          "attributes": {
            "NORMAL": 6,
            "POSITION": 5,
            "TEXCOORD_0": 7,
            "TEXCOORD_1": 8
          },
          "indices": 9,
          "material": 0,
          "mode": 4
        }
      ]
    },
    {
      "name": "model_tex_u1_v1_0",
      "primitives": [
        {
          "attributes": {
            "NORMAL": 11,
            "POSITION": 10,
            "TEXCOORD_0": 12,
            "TEXCOORD_1": 13
          },
          "indices": 14,
          "material": 0,
          "mode": 4
        }
      ]
    }
  ],
  "nodes": [
    {
      "children": [
        1
      ],
      "matrix": [
        1.0,
        0.0,
        0.0,
        0.0,
        0.0,
        2.220446049250313e-16,
        -1.0,
        0.0,
        0.0,
        1.0,
        2.220446049250313e-16,
        0.0,
        0.0,
        0.0,
        0.0,
        1.0
      ],
      "name": "Sketchfab_model"
    },
    {
      "children": [
        2
      ],
      "matrix": [
        1.0,
        0.0,
        0.0,
        0.0,
        0.0,
        0.0,
        1.0,
        0.0,
        0.0,
        -1.0,
        0.0,
        0.0,
        0.0,
        0.0,
        0.0,
        1.0
      ],
      "name": "model.fbx"
    },
    {
      "children": [
        3
      ],
      "name": "RootNode"
    },
    {
      "children": [
        4,
        5,
        6
      ],
      "matrix": [
        1.0,
        0.0,
        0.0,
        0.0,
        0.0,
        2.220446049250313e-16,
        -1.0,
        0.0,
        0.0,
        1.0,
        2.220446049250313e-16,
        0.0,
        0.0,
        0.0,
        0.0,
        1.0
      ],
      "name": "model"
    },
    {
      "mesh": 0,
      "name": "model_tex_u1_v1_0"
    },
    {
      "mesh": 1,
      "name": "model_tex_u1_v1_0"
    },
    {
      "mesh": 2,
      "name": "model_tex_u1_v1_0"
    }
  ],
  "samplers": [
    {
      "magFilter": 9729,
      "minFilter": 9987,
      "wrapS": 10497,
      "wrapT": 10497
    }
  ],
  "scene": 0,
  "scenes": [
    {
      "name": "Sketchfab_Scene",
      "nodes": [
        0
      ]
    }
  ],
  "textures": [
    {
      "sampler": 0,
      "source": 0
    }
  ]
}
